<svg id="java" xmlns="http://www.w3.org/2000/svg" viewBox="0 0 100 100"><title>java</title><rect width="100" height="100" fill="none"/><path d="M43.162,58.741H32.73a9.511,9.511,0,0,1-9.5-9.5v-1.8a9.51,9.51,0,0,1,9.5-9.5H43.162a9.512,9.512,0,0,1,9.5,9.5v1.8A9.513,9.513,0,0,1,43.162,58.741ZM32.73,43.527a3.917,3.917,0,0,0-3.912,3.912v1.8A3.916,3.916,0,0,0,32.73,53.15H43.162a3.916,3.916,0,0,0,3.911-3.911v-1.8a3.916,3.916,0,0,0-3.911-3.912H32.73Z" fill="#e0e0e0" stroke="#8e7c6b" stroke-linecap="round" stroke-linejoin="round" stroke-width="3"/><path d="M52.685,43.179c-11.276,0-20.11-3.8-20.11-8.647s8.833-8.647,20.11-8.647S72.8,29.683,72.8,34.532,63.963,43.179,52.685,43.179Zm0-16.294c-10.358,0-19.11,3.5-19.11,7.647s8.751,7.647,19.11,7.647S71.8,38.677,71.8,34.532,63.045,26.885,52.685,26.885Z" fill="#555" stroke="#8e7c6b" stroke-miterlimit="10" stroke-width="2"/><path d="M43.162,58.741H32.73a9.511,9.511,0,0,1-9.5-9.5v-1.8a9.51,9.51,0,0,1,9.5-9.5H43.162a9.512,9.512,0,0,1,9.5,9.5v1.8A9.513,9.513,0,0,1,43.162,58.741ZM32.73,43.527a3.917,3.917,0,0,0-3.912,3.912v1.8A3.916,3.916,0,0,0,32.73,53.15H43.162a3.916,3.916,0,0,0,3.911-3.911v-1.8a3.916,3.916,0,0,0-3.911-3.912H32.73Z" fill="#e0e0e0" stroke="#8e7c6b" stroke-linecap="round" stroke-linejoin="round"/><path d="M52.685,74.115c-12.592,0-20.11-5.832-20.11-15.6V34.532a0.5,0.5,0,0,1,.5-0.5H72.3a0.5,0.5,0,0,1,.5.5V58.513C72.8,68.283,65.278,74.115,52.685,74.115ZM33.575,35.032V58.513c0,9.143,7.144,14.6,19.11,14.6S71.8,67.656,71.8,58.513V35.032H33.575Z" fill="none" stroke="#8e7c6b" stroke-miterlimit="10" stroke-width="2"/><path d="M33.075,34.532V58.513c0,10.427,8.78,15.1,19.611,15.1S72.3,68.94,72.3,58.513V34.532H33.075Z" fill="#eaeaea"/><path d="M72.3,55.517c0,4.5-8.78,8.147-19.61,8.147s-19.61-3.648-19.61-8.147V50.376c0,4.5,8.78,8.147,19.61,8.147S72.3,54.876,72.3,50.376v5.141Z" fill="#8bd5f9"/><path d="M52.989,71.846h-1a15,15,0,0,1-15-15v-25h31v25A15,15,0,0,1,52.989,71.846Z" fill="#fff" opacity="0.3"/><path d="M52.685,43.179c-10.358,0-19.11-3.186-19.11-7.331h-1c0,4.849,8.833,8.331,20.11,8.331S72.8,40.7,72.8,35.848h-1C71.8,39.993,63.045,43.179,52.685,43.179Z" fill="#fff" opacity="0.8"/><path d="M52.958,71.846H52.414c-4.51,0-8.165-6.716-8.165-15v-25H61.123v25C61.123,65.13,57.468,71.846,52.958,71.846Z" fill="#fff" opacity="0.3"/><path d="M52.685,74.115c-12.592,0-20.11-5.832-20.11-15.6V34.532a0.5,0.5,0,0,1,.5-0.5H72.3a0.5,0.5,0,0,1,.5.5V58.513C72.8,68.283,65.278,74.115,52.685,74.115ZM33.575,35.032V58.513c0,9.143,7.144,14.6,19.11,14.6S71.8,67.656,71.8,58.513V35.032H33.575Z" fill="#8e7c6b"/><ellipse cx="52.686" cy="34.532" rx="19.61" ry="8.147" fill="#e0e0e0"/><path d="M52.686,31.353c-8.744,0-16.146,2.379-18.675,5.663,2.529,3.284,9.93,5.663,18.675,5.663S68.831,40.3,71.361,37.016C68.831,33.732,61.43,31.353,52.686,31.353Z" fill="#c4ab91"/><path d="M71.361,37.016c-2.529-3.284-9.93-5.663-18.675-5.663S36.54,33.732,34.011,37.016c0.13,0.169.281,0.533,0.436,0.7,2.865-3.024,9.944-5.366,18.239-5.366a42.549,42.549,0,0,1,5.176.318l-9.389,9.389c1.358,0.124,2.766.192,4.213,0.192A39.255,39.255,0,0,0,65.181,40.37s5.085-1.575,5.744-2.658C71.08,37.549,71.231,37.185,71.361,37.016Z" fill="#fff" opacity="0.2"/><path d="M52.685,43.179c-11.276,0-20.11-3.8-20.11-8.647s8.833-8.647,20.11-8.647S72.8,29.683,72.8,34.532,63.963,43.179,52.685,43.179Zm0-16.294c-10.358,0-19.11,3.5-19.11,7.647s8.751,7.647,19.11,7.647S71.8,38.677,71.8,34.532,63.045,26.885,52.685,26.885Z" fill="#8e7c6b"/></svg>