<svg id="Layer_1" data-name="Layer 1" xmlns="http://www.w3.org/2000/svg" viewBox="0 0 191.552 96.248"><title>logo-php</title><path d="M15.158,20.2H43.566Q56.074,20.3,61.692,27.406T65.4,46.8a37.235,37.235,0,0,1-3.286,11.024,32.764,32.764,0,0,1-6.784,9.752,23.666,23.666,0,0,1-11.342,7A52.251,52.251,0,0,1,31.482,76.06H18.762L14.734,96.2H0l15.158-76h0m12.4,12.084-6.36,31.8a7.729,7.729,0,0,0,1.272.106h1.484a55.743,55.743,0,0,0,16.96-2.014Q47.7,59.948,50.032,46.7q1.908-11.13-3.816-12.826a47.524,47.524,0,0,0-14.1-1.59q-1.272.106-2.438,0.106H27.454l0.106-.106" transform="translate(0 0.048)"/><path d="M82.186-.048H96.814L92.68,20.2h13.144q10.812,0.212,16.112,4.452,5.406,4.24,3.18,16.112l-7.1,35.3h-14.84l6.784-33.708q1.06-5.3-.636-7.526T102.008,32.6l-11.766-.106L81.55,76.06H66.922L82.186-.048h0" transform="translate(0 0.048)"/><path d="M140.824,20.2h28.408q12.508,0.106,18.126,7.208t3.71,19.4a37.235,37.235,0,0,1-3.286,11.024A32.764,32.764,0,0,1,181,67.58a23.666,23.666,0,0,1-11.342,7,52.251,52.251,0,0,1-12.508,1.484h-12.72L140.4,96.2H125.666l15.158-76h0m12.4,12.084-6.36,31.8a7.73,7.73,0,0,0,1.272.106h1.484a55.743,55.743,0,0,0,16.96-2.014q6.784-2.226,9.116-15.476,1.908-11.13-3.816-12.826a47.525,47.525,0,0,0-14.1-1.59q-1.272.106-2.438,0.106H153.12l0.106-.106" transform="translate(0 0.048)"/></svg>