<svg xmlns="http://www.w3.org/2000/svg" xmlns:xlink="http://www.w3.org/1999/xlink" viewBox="0 0 133.295 158.071"><defs><clipPath id="clip-path" transform="translate(16.648 29.522)"><circle id="SVGID" cx="50" cy="52.987" r="43.776" fill="none"/></clipPath><clipPath id="clip-path-2" transform="translate(16.648 29.522)"><rect id="SVGID-2" data-name="SVGID" x="3.563" y="11.537" width="46.437" height="85.226" fill="none"/></clipPath><clipPath id="clip-path-3" transform="translate(16.648 29.522)"><path id="SVGID-3" data-name="SVGID" d="M50,87.619c18.8,0,38.685-56.308,38.685-56.308L50,15.056,11.315,31.312S31.2,87.619,50,87.619Z" fill="none" stroke="#04496a" stroke-linejoin="round"/></clipPath><clipPath id="clip-path-4" transform="translate(16.648 29.522)"><rect id="SVGID-4" data-name="SVGID" x="50" y="11.537" width="46.437" height="85.226" transform="translate(146.437 108.3) rotate(180)" fill="none"/></clipPath><clipPath id="clip-path-5" transform="translate(16.648 29.522)"><path id="SVGID-5" data-name="SVGID" d="M50,87.619c-18.8,0-38.685-56.308-38.685-56.308L50,15.056,88.685,31.312S68.8,87.619,50,87.619Z" fill="none" stroke="#04496a" stroke-linejoin="round"/></clipPath></defs><title>boat</title><g style="isolation:isolate"><g id="rails"><path d="M89.482,22.937l-1.618-1.4a3.261,3.261,0,0,0-4.264,0l-1.618,1.4,1.4-1.618a3.261,3.261,0,0,0,0-4.264l-1.4-1.618,1.618,1.4a3.261,3.261,0,0,0,4.264,0l1.618-1.4-1.4,1.618a3.261,3.261,0,0,0,0,4.264Z" transform="translate(16.648 29.522)" fill="#f9e4c7" stroke="#f9e4c7" stroke-linecap="round" stroke-linejoin="round"/><circle cx="66.648" cy="82.509" r="43.776" fill="none" stroke="#04496a" stroke-miterlimit="10" stroke-width="4"/><g clip-path="url(#clip-path)"><rect x="12.016" y="17.021" width="109.264" height="68.836" fill="#f9e4c7"/><g opacity="0.5" style="mix-blend-mode:screen"><path d="M82.985,55.909v-4a2.7,2.7,0,0,1,2.694-2.695h2.629a2.694,2.694,0,1,0,0-5.388H87.027a2.694,2.694,0,0,1,0-5.388H99.1a2.694,2.694,0,0,0,0-5.389H97.645a2.694,2.694,0,1,1,0-5.389h8.13a2.694,2.694,0,1,0,0-5.388H69.087a2.694,2.694,0,1,0,0,5.388H85.451a2.694,2.694,0,1,1,0,5.389H73.242a2.694,2.694,0,0,0,0,5.389h2.837a2.694,2.694,0,0,1,0,5.388H63.762a2.694,2.694,0,0,0,0,5.388h9.283a2.694,2.694,0,0,1,2.693,2.695v4" transform="translate(16.648 29.522)" fill="#fff"/><path d="M59.39,22.359a2.694,2.694,0,1,1,0,5.387H55.9a2.694,2.694,0,0,1,0-5.387h4.133" transform="translate(16.648 29.522)" fill="#fff"/><path d="M71.784,11.986a2.694,2.694,0,0,1,0,5.388h-7.83a2.694,2.694,0,0,1,0-5.388h8.475" transform="translate(16.648 29.522)" fill="#fff" opacity="0.9"/><path d="M92.983,11.986a2.694,2.694,0,0,1,0,5.388H90.941a2.694,2.694,0,1,1,0-5.388h2.684" transform="translate(16.648 29.522)" fill="#fff" opacity="0.9"/></g><g opacity="0.5" style="mix-blend-mode:screen"><path d="M18.7,59.015V54.921a2.756,2.756,0,0,1,2.756-2.756h2.689a2.755,2.755,0,1,0,0-5.511H22.831a2.755,2.755,0,0,1,0-5.511H35.18a2.756,2.756,0,0,0,0-5.512h-1.49a2.756,2.756,0,1,1,0-5.512h8.315a2.755,2.755,0,1,0,0-5.511H4.483a2.755,2.755,0,1,0,0,5.511H21.22a2.756,2.756,0,1,1,0,5.512H8.732a2.756,2.756,0,0,0,0,5.512h2.9a2.755,2.755,0,0,1,0,5.511h-12.6a2.755,2.755,0,0,0-2.755,2.755A2.755,2.755,0,0,0-.963,52.165H8.531a2.755,2.755,0,0,1,2.754,2.756v4.095" transform="translate(16.648 29.522)" fill="#fff"/><path d="M-5.436,24.7a2.754,2.754,0,0,1,2.755,2.756,2.754,2.754,0,0,1-2.755,2.754H-9a2.754,2.754,0,0,1-2.755-2.754A2.754,2.754,0,0,1-9,24.7h4.227" transform="translate(16.648 29.522)" fill="#fff"/><path d="M7.241,14.092a2.755,2.755,0,0,1,0,5.51H-0.767a2.754,2.754,0,0,1-2.754-2.756A2.753,2.753,0,0,1-.767,14.092H7.9" transform="translate(16.648 29.522)" fill="#fff" opacity="0.9"/><path d="M28.922,14.092a2.755,2.755,0,0,1,0,5.51H26.834a2.755,2.755,0,1,1,0-5.51H29.58" transform="translate(16.648 29.522)" fill="#fff" opacity="0.9"/></g></g><polygon points="88.739 44.571 66.648 39.088 44.556 44.571 44.556 63.284 88.739 63.284 88.739 44.571" fill="#d8d8d8" stroke="#04496a" stroke-linecap="round" stroke-linejoin="round"/><path d="M45.133,22.029H32.924V18.41a2.185,2.185,0,0,1,1.652-2.119l9.185-2.31a1.093,1.093,0,0,1,1.359,1.058Z" transform="translate(16.648 29.522)" fill="#b7d6e2" stroke="#04496a" stroke-linejoin="round"/><path d="M54.892,22.029H67.1V18.41a2.185,2.185,0,0,0-1.652-2.119l-9.185-2.31A1.093,1.093,0,0,0,54.9,15.038Z" transform="translate(16.648 29.522)" fill="#b7d6e2" stroke="#04496a" stroke-linejoin="round"/><g clip-path="url(#clip-path-2)"><g clip-path="url(#clip-path-3)"><rect x="11.773" y="34.689" width="59.549" height="59.549" transform="translate(105.163 33.358) rotate(70.567)" fill="#ef737f"/><rect x="-8.438" y="-21.312" width="59.549" height="59.549" transform="translate(38.866 15.048) rotate(70.567)" fill="#eee"/></g><path id="SVGID-7" data-name="SVGID" d="M50,87.619c18.8,0,38.685-56.308,38.685-56.308L50,15.056,11.315,31.312S31.2,87.619,50,87.619Z" transform="translate(16.648 29.522)" fill="none" stroke="#04496a" stroke-linejoin="round"/></g><g clip-path="url(#clip-path-4)"><g clip-path="url(#clip-path-5)"><rect x="28.678" y="34.689" width="59.549" height="59.549" transform="translate(155.339 60.31) rotate(109.433)" fill="#e27181"/><rect x="48.889" y="-21.312" width="59.549" height="59.549" transform="translate(129.463 -33.382) rotate(109.433)" fill="#e0e0e0"/></g><path id="SVGID-8" data-name="SVGID" d="M50,87.619c-18.8,0-38.685-56.308-38.685-56.308L50,15.056,88.685,31.312S68.8,87.619,50,87.619Z" transform="translate(16.648 29.522)" fill="none" stroke="#04496a" stroke-linejoin="round"/></g><g clip-path="url(#clip-path)"><path d="M78.989,56.335a53.893,53.893,0,0,1-57.979,0H-4.632V96.763H104.632V56.335H78.989Z" transform="translate(16.648 29.522)" fill="#65b5ce" stroke="#04496a" stroke-miterlimit="10"/><path d="M83.5,59.592a16.111,16.111,0,0,0-7.725,1.9,53.906,53.906,0,0,1-52.9-.761,8.5,8.5,0,0,0-4.288-1.138H4.053a8.685,8.685,0,0,0-8.685,8.685V91.335a8.685,8.685,0,0,0,8.685,8.685H95.947a8.685,8.685,0,0,0,8.685-8.685V68.277a8.685,8.685,0,0,0-8.685-8.685H83.5Z" transform="translate(16.648 29.522)" fill="#7fcfef" stroke="#04496a" stroke-miterlimit="10" stroke-width="0.5" opacity="0.1"/><path d="M83.5,61.763a16.111,16.111,0,0,0-7.725,1.9,53.906,53.906,0,0,1-52.9-.761,8.5,8.5,0,0,0-4.288-1.138H4.053a8.685,8.685,0,0,0-8.685,8.685V93.506a8.685,8.685,0,0,0,8.685,8.685H95.947a8.685,8.685,0,0,0,8.685-8.685V70.448a8.685,8.685,0,0,0-8.685-8.685H83.5Z" transform="translate(16.648 29.522)" fill="#7fcfef" stroke="#04496a" stroke-miterlimit="10" stroke-width="0.5" opacity="0.1"/><path d="M83.5,63.987a16.111,16.111,0,0,0-7.725,1.9,53.906,53.906,0,0,1-52.9-.761,8.5,8.5,0,0,0-4.288-1.138H4.053a8.685,8.685,0,0,0-8.685,8.685V95.729a8.685,8.685,0,0,0,8.685,8.685H95.947a8.685,8.685,0,0,0,8.685-8.685V72.672a8.685,8.685,0,0,0-8.685-8.685H83.5Z" transform="translate(16.648 29.522)" fill="#7fcfef" stroke="#04496a" stroke-miterlimit="10" stroke-width="0.5" opacity="0.1"/><path d="M83.5,66.158a16.111,16.111,0,0,0-7.725,1.9,53.906,53.906,0,0,1-52.9-.761,8.5,8.5,0,0,0-4.288-1.138H4.053a8.685,8.685,0,0,0-8.685,8.685V97.9a8.685,8.685,0,0,0,8.685,8.685H95.947a8.685,8.685,0,0,0,8.685-8.685V74.843a8.685,8.685,0,0,0-8.685-8.685H83.5Z" transform="translate(16.648 29.522)" fill="#7fcfef" stroke="#04496a" stroke-miterlimit="10" stroke-width="0.5" opacity="0.1"/><path d="M83.5,68.329a16.111,16.111,0,0,0-7.725,1.9,53.906,53.906,0,0,1-52.9-.761,8.5,8.5,0,0,0-4.288-1.138H4.053a8.685,8.685,0,0,0-8.685,8.685v23.057a8.685,8.685,0,0,0,8.685,8.685H95.947a8.685,8.685,0,0,0,8.685-8.685V77.015a8.685,8.685,0,0,0-8.685-8.685H83.5Z" transform="translate(16.648 29.522)" fill="#7fcfef" stroke="#04496a" stroke-miterlimit="10" stroke-width="0.5" opacity="0.1"/><path d="M83.5,70.5a16.111,16.111,0,0,0-7.725,1.9,53.906,53.906,0,0,1-52.9-.761A8.5,8.5,0,0,0,18.586,70.5H4.053a8.685,8.685,0,0,0-8.685,8.685v23.057a8.685,8.685,0,0,0,8.685,8.685H95.947a8.685,8.685,0,0,0,8.685-8.685V79.186A8.685,8.685,0,0,0,95.947,70.5H83.5Z" transform="translate(16.648 29.522)" fill="#7fcfef" stroke="#04496a" stroke-miterlimit="10" stroke-width="0.5" opacity="0.1"/><path d="M83.5,72.672a16.111,16.111,0,0,0-7.725,1.9,53.906,53.906,0,0,1-52.9-.761,8.5,8.5,0,0,0-4.288-1.138H4.053a8.685,8.685,0,0,0-8.685,8.685v23.057A8.685,8.685,0,0,0,4.053,113.1H95.947a8.685,8.685,0,0,0,8.685-8.685V81.357a8.685,8.685,0,0,0-8.685-8.685H83.5Z" transform="translate(16.648 29.522)" fill="#7fcfef" stroke="#04496a" stroke-miterlimit="10" stroke-width="0.5" opacity="0.1"/><path d="M83.5,74.843a16.111,16.111,0,0,0-7.725,1.9,53.906,53.906,0,0,1-52.9-.761,8.5,8.5,0,0,0-4.288-1.138H4.053a8.685,8.685,0,0,0-8.685,8.685v23.057a8.685,8.685,0,0,0,8.685,8.685H95.947a8.685,8.685,0,0,0,8.685-8.685V83.528a8.685,8.685,0,0,0-8.685-8.685H83.5Z" transform="translate(16.648 29.522)" fill="#7fcfef" stroke="#04496a" stroke-miterlimit="10" stroke-width="0.5" opacity="0.1"/><path d="M83.5,77.015a16.111,16.111,0,0,0-7.725,1.9,53.906,53.906,0,0,1-52.9-.761,8.5,8.5,0,0,0-4.288-1.138H4.053A8.685,8.685,0,0,0-4.632,85.7v23.057a8.685,8.685,0,0,0,8.685,8.685H95.947a8.685,8.685,0,0,0,8.685-8.685V85.7a8.685,8.685,0,0,0-8.685-8.685H83.5Z" transform="translate(16.648 29.522)" fill="#7fcfef" stroke="#04496a" stroke-miterlimit="10" stroke-width="0.5" opacity="0.1"/><path d="M83.5,79.186a16.111,16.111,0,0,0-7.725,1.9,53.906,53.906,0,0,1-52.9-.761,8.5,8.5,0,0,0-4.288-1.138H4.053a8.685,8.685,0,0,0-8.685,8.685v23.057a8.685,8.685,0,0,0,8.685,8.685H95.947a8.685,8.685,0,0,0,8.685-8.685V87.871a8.685,8.685,0,0,0-8.685-8.685H83.5Z" transform="translate(16.648 29.522)" fill="#7fcfef" stroke="#04496a" stroke-miterlimit="10" stroke-width="0.5" opacity="0.1"/><path d="M83.5,81.357a16.111,16.111,0,0,0-7.725,1.9,53.906,53.906,0,0,1-52.9-.761,8.5,8.5,0,0,0-4.288-1.138H4.053a8.685,8.685,0,0,0-8.685,8.685V113.1a8.685,8.685,0,0,0,8.685,8.685H95.947a8.685,8.685,0,0,0,8.685-8.685V90.042a8.685,8.685,0,0,0-8.685-8.685H83.5Z" transform="translate(16.648 29.522)" fill="#7fcfef" stroke="#04496a" stroke-miterlimit="10" stroke-width="0.5" opacity="0.1"/><path d="M83.5,83.528a16.111,16.111,0,0,0-7.725,1.9,53.906,53.906,0,0,1-52.9-.761,8.5,8.5,0,0,0-4.288-1.138H4.053a8.685,8.685,0,0,0-8.685,8.685v23.057a8.685,8.685,0,0,0,8.685,8.685H95.947a8.685,8.685,0,0,0,8.685-8.685V92.214a8.685,8.685,0,0,0-8.685-8.685H83.5Z" transform="translate(16.648 29.522)" fill="#7fcfef" stroke="#04496a" stroke-miterlimit="10" stroke-width="0.5" opacity="0.1"/><path d="M83.5,85.7a16.111,16.111,0,0,0-7.725,1.9,53.906,53.906,0,0,1-52.9-.761A8.5,8.5,0,0,0,18.586,85.7H4.053a8.685,8.685,0,0,0-8.685,8.685v23.057a8.685,8.685,0,0,0,8.685,8.685H95.947a8.685,8.685,0,0,0,8.685-8.685V94.385A8.685,8.685,0,0,0,95.947,85.7H83.5Z" transform="translate(16.648 29.522)" fill="#7fcfef" stroke="#04496a" stroke-miterlimit="10" stroke-width="0.5" opacity="0.1"/><path d="M83.5,87.871a16.111,16.111,0,0,0-7.725,1.9,53.906,53.906,0,0,1-52.9-.761,8.5,8.5,0,0,0-4.288-1.138H4.053a8.685,8.685,0,0,0-8.685,8.685v23.057A8.685,8.685,0,0,0,4.053,128.3H95.947a8.685,8.685,0,0,0,8.685-8.685V96.556a8.685,8.685,0,0,0-8.685-8.685H83.5Z" transform="translate(16.648 29.522)" fill="#7fcfef" stroke="#04496a" stroke-miterlimit="10" stroke-width="0.5" opacity="0.1"/><path d="M78.989,57.421a53.893,53.893,0,0,1-57.979,0H-4.632V97.848H104.632V57.421H78.989Z" transform="translate(16.648 29.522)" fill="none" stroke="#fff" stroke-miterlimit="10" opacity="0.5"/></g><line x1="72.293" y1="31.509" x2="72.293" y2="40.407" fill="none" stroke="#04496a" stroke-linecap="round" stroke-linejoin="round"/><line x1="70.108" y1="34.059" x2="70.108" y2="39.947" fill="none" stroke="#04496a" stroke-linecap="round" stroke-linejoin="round"/><path d="M67.01,6.377a1.893,1.893,0,0,0-1.75-1.75l-1.238-.09,1.238-.09A1.893,1.893,0,0,0,67.01,2.7L67.1,1.458,67.191,2.7a1.893,1.893,0,0,0,1.75,1.75l1.238,0.09-1.238.09a1.893,1.893,0,0,0-1.75,1.75L67.1,7.616,67.01,6.377" transform="translate(16.648 29.522)" fill="#f9e4c7" stroke="#f9e4c7" stroke-linecap="round" stroke-linejoin="round"/><circle cx="110.773" cy="35.958" r="1.5" fill="none" stroke="#f9e4c7" stroke-linecap="round" stroke-linejoin="round"/><path d="M3.191,27.254a1.893,1.893,0,0,0,0-2.475l-0.812-.939,0.939,0.812a1.893,1.893,0,0,0,2.475,0l0.939-.812-0.812.939a1.893,1.893,0,0,0,0,2.475l0.812,0.939-0.939-.812a1.893,1.893,0,0,0-2.475,0l-0.939.812,0.812-.939" transform="translate(16.648 29.522)" fill="#f9e4c7" stroke="#f9e4c7" stroke-linecap="round" stroke-linejoin="round"/><path d="M6.224,11.739L6.1,10.067A2.557,2.557,0,0,0,3.738,7.7L2.065,7.58l1.673-.122A2.557,2.557,0,0,0,6.1,5.094L6.224,3.421,6.346,5.094A2.557,2.557,0,0,0,8.711,7.458L10.384,7.58,8.711,7.7a2.557,2.557,0,0,0-2.364,2.364Z" transform="translate(16.648 29.522)" fill="#f9e4c7" stroke="#f9e4c7" stroke-linecap="round" stroke-linejoin="round"/><circle cx="38.398" cy="38.734" r="1.5" fill="none" stroke="#f9e4c7" stroke-linecap="round" stroke-linejoin="round"/></g></g></svg>