<svg id="docker_next" data-name="docker next" xmlns="http://www.w3.org/2000/svg" viewBox="0 0 100 100"><title>getting-started-next</title><path d="M74.987,33.392l-1.618-1.4a3.261,3.261,0,0,0-4.264,0l-1.618,1.4,1.4-1.618a3.261,3.261,0,0,0,0-4.264l-1.4-1.618,1.618,1.4a3.261,3.261,0,0,0,4.264,0l1.618-1.4-1.4,1.618a3.261,3.261,0,0,0,0,4.264Z" fill="#abe5f4" stroke="#abe5f4" stroke-linecap="round" stroke-linejoin="round"/><circle cx="25.297" cy="26.434" r="1.5" fill="none" stroke="#abe5f4" stroke-linecap="round" stroke-linejoin="round"/><path d="M18.044,39.451l-0.122-1.673a2.557,2.557,0,0,0-2.364-2.364l-1.673-.122,1.673-.122a2.557,2.557,0,0,0,2.364-2.364l0.122-1.673,0.122,1.673A2.557,2.557,0,0,0,20.53,35.17L22.2,35.292l-1.673.122a2.557,2.557,0,0,0-2.364,2.364Z" fill="#abe5f4" stroke="#abe5f4" stroke-linecap="round" stroke-linejoin="round"/><path d="M74.987,72.145l-0.122-1.673A2.557,2.557,0,0,0,72.5,68.108l-1.673-.122,1.673-.122A2.557,2.557,0,0,0,74.865,65.5l0.122-1.673L75.109,65.5a2.557,2.557,0,0,0,2.364,2.364l1.673,0.122-1.673.122a2.557,2.557,0,0,0-2.364,2.364Z" fill="#abe5f4" stroke="#abe5f4" stroke-linecap="round" stroke-linejoin="round"/><circle cx="85.297" cy="35.434" r="1.5" fill="none" stroke="#abe5f4" stroke-linecap="round" stroke-linejoin="round"/><path d="M24.471,64.574l-0.979-.845a1.972,1.972,0,0,0-2.579,0l-0.979.845,0.845-.979a1.972,1.972,0,0,0,0-2.579l-0.845-.979,0.979,0.845a1.972,1.972,0,0,0,2.579,0l0.979-.845-0.845.979a1.972,1.972,0,0,0,0,2.579Z" fill="#abe5f4" stroke="#abe5f4" stroke-linecap="round" stroke-linejoin="round"/><circle cx="25.648" cy="75.51" r="1.5" fill="none" stroke="#abe5f4" stroke-linecap="round" stroke-linejoin="round"/><path d="M45.547,20.775L45.425,19.1a2.557,2.557,0,0,0-2.364-2.364l-1.673-.122,1.673-.122a2.557,2.557,0,0,0,2.364-2.364l0.122-1.673,0.122,1.673a2.557,2.557,0,0,0,2.364,2.364l1.673,0.122-1.673.122A2.557,2.557,0,0,0,45.669,19.1Z" fill="#abe5f4" stroke="#abe5f4" stroke-linecap="round" stroke-linejoin="round"/><polygon points="50 25.012 72.5 35.273 72.5 61.202 50 73.067 27.5 61.202 27.5 35.273 50 25.012" fill="#20c2ef" stroke="#394d54" stroke-linejoin="round" stroke-width="3"/><polygon points="72.5 61.202 72.5 35.273 50 46.523 50 73.067 72.5 61.202" fill="#20c2ef" stroke="#394d54" stroke-linejoin="round"/><polygon points="50 46.523 72.5 35.273 50 25.012 27.5 35.273 50 46.523" fill="#20c2ef" stroke="#394d54" stroke-linejoin="round"/><polygon points="50 26.44 29.601 35.743 28.665 35.31 50 25.563 71.338 35.292 70.423 35.754 50 26.44" fill="#fff" opacity="0.3"/><polygon points="71.996 36.09 71.996 36.969 50.5 47.717 50.49 46.843 71.996 36.09" fill="#fff" opacity="0.3"/><polygon points="27.5 61.202 27.5 35.273 50 46.523 50 73.067 27.5 61.202" fill="#0eacd1" stroke="#394d54" stroke-linejoin="round"/><polygon points="65.781 61.466 68.432 60.068 68.432 41.203 65.781 42.604 65.781 61.466" fill="#0eacd1" stroke="#394d54" stroke-linejoin="round" stroke-width="0.5"/><polygon points="60.425 64.203 63.076 62.805 63.076 43.94 60.425 45.341 60.425 64.203" fill="#0eacd1" stroke="#394d54" stroke-linejoin="round" stroke-width="0.5"/><polygon points="55.069 67.166 57.721 65.768 57.721 46.903 55.069 48.304 55.069 67.166" fill="#0eacd1" stroke="#394d54" stroke-linejoin="round" stroke-width="0.5"/><polygon points="68.182 41.629 68.182 59.918 67.45 60.306 67.448 42.856 67.448 42.856 66.035 43.521 66.035 42.753 68.182 41.629" opacity="0.12"/><polygon points="62.829 44.347 62.829 62.659 62.121 63.018 62.119 45.59 62.119 45.59 60.671 46.271 60.671 45.494 62.829 44.347" opacity="0.12"/><polygon points="57.471 47.312 57.471 65.618 56.765 65.98 56.763 48.558 56.763 48.559 55.318 49.239 55.318 48.459 57.471 47.312" opacity="0.12"/><polygon points="28 36.094 49.516 46.859 49.516 47.717 31.984 63 28 60.906 28 36.094" opacity="0.05"/><rect width="100" height="100" fill="none"/></svg>