<svg id="nodejs" xmlns="http://www.w3.org/2000/svg" viewBox="0 0 100 100"><title>nodejs</title><path d="M26.852,62.3V37.7a1.852,1.852,0,0,1,.926-1.6l21.3-12.3a1.852,1.852,0,0,1,1.852,0l21.3,12.3a1.852,1.852,0,0,1,.926,1.6V62.3a1.852,1.852,0,0,1-.926,1.6l-21.3,12.3a1.852,1.852,0,0,1-1.852,0l-21.3-12.3A1.852,1.852,0,0,1,26.852,62.3Z" fill="#77ae64"/><polygon points="50 23.271 64.267 47.982 73.148 36.635 50 23.271" fill="#6ea360"/><polygon points="73.148 36.635 64.267 47.982 73.148 63.365 73.148 36.635" fill="#3e863d"/><polygon points="34.568 50 50 76.729 26.852 63.365 34.568 50" fill="#3e863d"/><polygon points="26.852 36.635 34.568 50 26.852 63.365 26.852 36.635" fill="#669f5a"/><path d="M50,23.557a1.851,1.851,0,0,1,.926.248l21.3,12.3a1.852,1.852,0,0,1,.926,1.6V62.3a1.852,1.852,0,0,1-.926,1.6l-21.3,12.3a1.852,1.852,0,0,1-1.852,0l-21.3-12.3a1.852,1.852,0,0,1-.926-1.6V37.7a1.852,1.852,0,0,1,.926-1.6l21.3-12.3A1.851,1.851,0,0,1,50,23.557m0-1.852a3.709,3.709,0,0,0-1.852.5l-21.3,12.3A3.714,3.714,0,0,0,25,37.7V62.3A3.714,3.714,0,0,0,26.852,65.5l21.3,12.3a3.7,3.7,0,0,0,3.7,0l21.3-12.3A3.714,3.714,0,0,0,75,62.3V37.7A3.714,3.714,0,0,0,73.148,34.5l-21.3-12.3a3.708,3.708,0,0,0-1.852-.5h0Z" fill="#3e863d"/><path d="M50,65.65a2.522,2.522,0,0,1-1.208-.316l-3.824-2.272c-0.575-.316-0.288-0.431-0.115-0.489a6.966,6.966,0,0,0,1.725-.776,0.265,0.265,0,0,1,.288.029L49.8,63.58a0.365,0.365,0,0,0,.345,0l11.473-6.643a0.33,0.33,0,0,0,.173-0.316V43.365a0.33,0.33,0,0,0-.173-0.316L50.144,36.435a0.365,0.365,0,0,0-.345,0L38.325,43.048a0.361,0.361,0,0,0-.173.316V56.621a0.361,0.361,0,0,0,.173.316l3.134,1.812c1.7,0.863,2.761-.144,2.761-1.15V44.515a0.35,0.35,0,0,1,.345-0.345h1.467a0.35,0.35,0,0,1,.345.345V57.6c0,2.272-1.236,3.594-3.393,3.594a4.933,4.933,0,0,1-2.646-.719l-3.019-1.725a2.427,2.427,0,0,1-1.208-2.1V43.393a2.427,2.427,0,0,1,1.208-2.1l11.473-6.643a2.566,2.566,0,0,1,2.415,0l11.473,6.643a2.427,2.427,0,0,1,1.208,2.1V56.65a2.427,2.427,0,0,1-1.208,2.1L51.208,65.391A2.943,2.943,0,0,1,50,65.65h0Zm3.537-9.115c-5.032,0-6.067-2.3-6.067-4.256a0.35,0.35,0,0,1,.345-0.345h1.5a0.3,0.3,0,0,1,.316.288c0.23,1.524.891,2.272,3.939,2.272,2.415,0,3.451-.546,3.451-1.84,0-.748-0.288-1.294-4.055-1.668-3.134-.316-5.09-1.006-5.09-3.508,0-2.329,1.955-3.709,5.233-3.709,3.681,0,5.492,1.265,5.722,4.026a0.464,0.464,0,0,1-.086.259,0.355,0.355,0,0,1-.23.115h-1.5a0.337,0.337,0,0,1-.316-0.259c-0.345-1.582-1.236-2.1-3.594-2.1-2.646,0-2.962.92-2.962,1.61,0,0.834.374,1.093,3.939,1.553,3.537,0.46,5.2,1.121,5.2,3.594-0.029,2.53-2.1,3.968-5.751,3.968h0Z" fill="#fff"/><rect width="100" height="100" fill="none"/></svg>