<svg id="php" xmlns="http://www.w3.org/2000/svg" viewBox="0 0 100 100"><title>php</title><circle cx="50.045" cy="50.04" r="22.303" fill="none" stroke="#4f5e7f" stroke-miterlimit="10" stroke-width="3"/><path d="M29.973,41.285l19.319,8-8-19.319A22.089,22.089,0,0,0,29.973,41.285Z" transform="translate(0)" fill="#8ca9dd"/><path d="M50.8,50.792L28.905,41.724l0.156-.376A22.893,22.893,0,0,1,41.353,29.056L41.73,28.9ZM29.973,41.285l19.319,8-8-19.319A22.089,22.089,0,0,0,29.973,41.285Z" transform="translate(0)" fill="#4f5e7f"/><path d="M42.043,29.654l8,19.318,8-19.318A22.085,22.085,0,0,0,42.043,29.654Z" transform="translate(0)" fill="#9cbdef"/><path d="M49.292,49.287l-8-19.319c-0.25.109-.487,0.244-0.732,0.362l7.669,18.515Z" transform="translate(0)" fill="#fff" opacity="0.3"/><path d="M50.045,28.968a21.075,21.075,0,0,1,6.925,1.157l-7.4,17.711L42.34,30.37l0.78-.245a21.071,21.071,0,0,1,6.925-1.157m0-.815a21.966,21.966,0,0,0-8,1.5l8,19.318,8-19.318a21.971,21.971,0,0,0-8-1.5h0Z" transform="translate(0)" fill="#fff" opacity="0.3"/><path d="M58.8,29.968l-8,19.319,19.318-8A22.085,22.085,0,0,0,58.8,29.968Z" transform="translate(0)" fill="#a2c9f9"/><path d="M70.652,58.572a22.374,22.374,0,0,0,0-17.072L50.045,50.037Z" transform="translate(0)" fill="#92adea"/><path d="M70.652,58.572a22.374,22.374,0,0,0,0-17.072L50.045,50.037Z" transform="translate(0)" fill="#9cbdef" stroke="#4f5e7f" stroke-miterlimit="10"/><path d="M70.872,59.105L48.98,50.037l21.892-9.068,0.156,0.377a22.9,22.9,0,0,1,0,17.383ZM51.109,50.037l19.318,8a22.085,22.085,0,0,0,0-16Z" transform="translate(0)" fill="#4f5e7f"/><path d="M59.324,31.317a21.233,21.233,0,0,1,9.444,9.444L52.645,47.439l6.678-16.122M58.8,29.968l-8,19.319,19.318-8A22.085,22.085,0,0,0,58.8,29.968h0Z" transform="translate(0)" fill="#fff" opacity="0.3"/><path d="M69.956,43.112a21.4,21.4,0,0,1,0,13.85l-0.292.761L52.174,50.478l17.783-7.366m0.471-1.077-19.318,8,19.318,8a22.085,22.085,0,0,0,0-16h0Z" transform="translate(0)" fill="#fff" opacity="0.3"/><path d="M70.116,58.747l-19.318-8,8,19.318A22.081,22.081,0,0,0,70.116,58.747Z" transform="translate(0)" fill="#8ca9dd"/><polygon points="50.705 51.588 51.238 51.809 51.238 51.809 50.705 51.588" fill="#fff" opacity="0.3"/><path d="M69.756,59.474c0.118-.244.251-0.479,0.36-0.727l-19.318-8,0.441,1.064,17.783,7.366Z" transform="translate(0)" fill="#fff" opacity="0.3"/><path d="M49.292,50.792L58.361,28.9l0.376,0.156A22.892,22.892,0,0,1,71.028,41.348l0.156,0.376ZM58.8,29.968l-8,19.319,19.318-8A22.085,22.085,0,0,0,58.8,29.968Z" transform="translate(0)" fill="#4f5e7f"/><path d="M58.361,71.132L49.292,49.239l21.892,9.068-0.156.376A22.894,22.894,0,0,1,58.737,70.976ZM50.8,50.745l8,19.318A22.081,22.081,0,0,0,70.116,58.747Z" transform="translate(0)" fill="#4f5e7f"/><path d="M46.08,60.631l-4.037,9.747a22.093,22.093,0,0,0,16,0l-4.038-9.747H46.08Z" transform="translate(0)" fill="#7c96c4"/><path d="M53.465,61.446l3.774,9.227c0.271-.094.541-0.19,0.808-0.294l-4.038-9.747H46.08l-0.338.815h7.722Z" transform="translate(0)" fill="#fff" opacity="0.3"/><path d="M29.662,41.993a22.085,22.085,0,0,0,0,16l9.792-4.056V46.049Z" transform="translate(0)" fill="#7c96c4"/><path d="M29.383,42.76l9.256,3.834v7.686l0.815-.337V46.049l-9.792-4.056C29.563,42.247,29.472,42.5,29.383,42.76Z" transform="translate(0)" fill="#fff" opacity="0.3"/><path d="M41.29,70.063L45.332,60.3l-5.6-5.6-9.758,4.042A22.085,22.085,0,0,0,41.29,70.063Z" transform="translate(0)" fill="#7994bc"/><polygon points="39.732 54.705 38.917 55.043 44.995 61.119 45.332 60.305 39.732 54.705" fill="#fff" opacity="0.3"/><path d="M41.73,71.132l-0.376-.156A22.892,22.892,0,0,1,29.061,58.684l-0.156-.376L40.268,53.6v0.489l6.025,6.024ZM29.973,58.747A22.085,22.085,0,0,0,41.29,70.063L45.332,60.3l-5.6-5.6Z" transform="translate(0)" fill="#4f5e7f"/><polygon points="59.821 45.99 54.095 40.263 45.995 40.263 40.268 45.99 40.268 54.089 45.995 59.816 54.095 59.816 59.821 54.089 59.821 45.99" fill="#8ca9dd"/><polygon points="54.095 40.263 45.995 40.263 45.18 41.078 53.757 41.078 59.007 46.328 59.007 54.904 59.821 54.089 59.821 45.99 54.095 40.263" fill="#fff" opacity="0.24"/><path d="M54.432,60.631H45.658l-6.2-6.2V45.653l6.2-6.2h8.774l6.2,6.2v8.774ZM46,59.816h8.1l5.727-5.727v-8.1l-5.727-5.727H46L40.268,45.99v8.1Z" transform="translate(0)" fill="#4f5e7f"/><path d="M50.045,72.693a22.735,22.735,0,0,1-8.692-1.714l-0.376-.156L45.667,59.5l0.325,0.315h8.1l0.325-.325,4.694,11.331-0.376.156A22.769,22.769,0,0,1,50.045,72.693Zm-8-2.314a22.093,22.093,0,0,0,16,0l-4.038-9.747H46.08Z" transform="translate(0)" fill="#4f5e7f"/><polygon points="41.79 55.611 40.268 54.089 40.268 51.045 50.235 41.078 53.757 41.078 55.04 42.361 41.79 55.611" fill="#fff" opacity="0.24"/><rect width="100" height="100" fill="none"/></svg>